<svg width="32" height="32" viewBox="0 0 32 32" xmlns="http://www.w3.org/2000/svg"><rect width="32" height="32" rx="5" ry="5" fill="#eee"/><path d="M9.48 29.65c-1.38-.41-2.42-1.39-2.42-2.28 0-.62.18-.7 1.26-.52 1.19.2 1.3.12 2.19-1.45.5-.92.93-1.84.93-2.05 0-.22.51-.94.9-1.76.37-.82.76-1.71 1.1-2.41.44-.94.44-.9.88-1.43.38-.8.4-2.12.4-4.13 0-3.13.05-3.04-3.92-7.67C8.7 3.52 8.35 2.3 9.7 2.3c.57 0 1.34.64 2.43 2.01 2.03 2.54 2.87 3.25 1.9 1.6-.74-1.25-.74-1.27-.04-2.42a3.36 3.36 0 0 1 1.64-1.4c1.39-.35 3 .47 3.44 1.75.32.93.26 1.28-.4 2.2l-.78 1.1.77-.42c.43-.23.9-.63 1.06-.9.52-.87 4.18-3.2 4.7-3 1.14.43.44 1.65-2.31 4.06-4.64 4.05-4.49 3.81-4.3 6.84.12 1.88.45 3.21 1.15 4.64 1.45 2.94 1.48 3.03 1.75 4.21.4 1.8 1.48 2.9 2.84 2.9 1.03 0 1.22.15 1.32.96.14 1.26-2.13 3.34-3.48 3.17-.76-.09-1.06-.5-1.79-2.48-.48-1.3-1.2-2.97-1.6-3.7-.4-.73-.73-1.75-.73-2.26s-.15-1.02-.33-1.14c-.46-.28-1.65 1.47-2.22 3.27-.26.8-.58 1.54-.7 1.64-.14.1-.46.9-.71 1.78-.44 1.5-1.85 3.37-2.5 3.3-.16-.02-.76-.17-1.33-.35z" fill="#333"/></svg>